G04 Layer: DrillDrawingLayer*
G04 EasyEDA Pro v3.2.149.88089769, 2026-07-19 00:13:07*
G04 Gerber Generator version 0.3*
G04 Scale: 100 percent, Rotated: No, Reflected: No*
G04 Dimensions in millimeters*
G04 Leading zeros omitted, absolute positions, 4 integers and 5 decimals*
G04 Generated by one-click*
G04 Object Configs: Pad,Via,Track,Text,Image,Dimension,BoardOutline,BoardCutout,CopperFilled,SolidRegion,FPCStiffener,Line,PlaneZone,ComponentProperty,ComponentSilkscreen,TearDrop*
G04 Layer Configs: 1,2,3,4,5,6,7,8,9,10,11,13,14,56*
G04 Copper Areas: 0*
%FSLAX45Y45*%
%MOMM*%
%AMIconRect*4,1,4,0.28,-0.28,-0.28,-0.28,-0.28,0.28,0.28,0.28,0.28,-0.28,0*4,0,4,0.233333,-0.233333,0.233333,0.233333,-0.233333,0.233333,-0.233333,-0.233333,0.233333,-0.233333,0*%
%ADD10IconRect*%
%ADD11C,0.2032*%
%ADD12C,0.254*%
G75*


G04 Drill Drawing Start*
G54D10*
G01X1935500Y-6635100D03*
G01X2400300Y-6261100D03*
G01X2832100Y-5840437D03*
G01X3048000Y-5880100D03*
G04 Drill Drawing End*

G04 Text Start*
G54D11*
G01X12352346Y-1722406D02*
G01X12352346Y-1842548D01*
G01X12352346Y-1722406D02*
G01X12398066Y-1842548D01*
G01X12443786Y-1722406D02*
G01X12398066Y-1842548D01*
G01X12443786Y-1722406D02*
G01X12443786Y-1842548D01*
G01X12560118Y-1762538D02*
G01X12560118Y-1842548D01*
G01X12560118Y-1779556D02*
G01X12548688Y-1768126D01*
G01X12537258Y-1762538D01*
G01X12520240Y-1762538D01*
G01X12508810Y-1768126D01*
G01X12497380Y-1779556D01*
G01X12491538Y-1796828D01*
G01X12491538Y-1808258D01*
G01X12497380Y-1825276D01*
G01X12508810Y-1836706D01*
G01X12520240Y-1842548D01*
G01X12537258Y-1842548D01*
G01X12548688Y-1836706D01*
G01X12560118Y-1825276D01*
G01X12607870Y-1762538D02*
G01X12607870Y-1842548D01*
G01X12607870Y-1796828D02*
G01X12613712Y-1779556D01*
G01X12625142Y-1768126D01*
G01X12636572Y-1762538D01*
G01X12653590Y-1762538D01*
G01X12701342Y-1722406D02*
G01X12701342Y-1842548D01*
G01X12758492Y-1762538D02*
G01X12701342Y-1819688D01*
G01X12724202Y-1796828D02*
G01X12764334Y-1842548D01*
G01X13889626Y-1751108D02*
G01X13883784Y-1739678D01*
G01X13872354Y-1728248D01*
G01X13860924Y-1722406D01*
G01X13838064Y-1722406D01*
G01X13826634Y-1728248D01*
G01X13815204Y-1739678D01*
G01X13809616Y-1751108D01*
G01X13803774Y-1768126D01*
G01X13803774Y-1796828D01*
G01X13809616Y-1813846D01*
G01X13815204Y-1825276D01*
G01X13826634Y-1836706D01*
G01X13838064Y-1842548D01*
G01X13860924Y-1842548D01*
G01X13872354Y-1836706D01*
G01X13883784Y-1825276D01*
G01X13889626Y-1813846D01*
G01X13966080Y-1762538D02*
G01X13954650Y-1768126D01*
G01X13943220Y-1779556D01*
G01X13937378Y-1796828D01*
G01X13937378Y-1808258D01*
G01X13943220Y-1825276D01*
G01X13954650Y-1836706D01*
G01X13966080Y-1842548D01*
G01X13983098Y-1842548D01*
G01X13994528Y-1836706D01*
G01X14005958Y-1825276D01*
G01X14011800Y-1808258D01*
G01X14011800Y-1796828D01*
G01X14005958Y-1779556D01*
G01X13994528Y-1768126D01*
G01X13983098Y-1762538D01*
G01X13966080Y-1762538D01*
G01X14059552Y-1762538D02*
G01X14059552Y-1819688D01*
G01X14065394Y-1836706D01*
G01X14076824Y-1842548D01*
G01X14093842Y-1842548D01*
G01X14105272Y-1836706D01*
G01X14122544Y-1819688D01*
G01X14122544Y-1762538D02*
G01X14122544Y-1842548D01*
G01X14170296Y-1762538D02*
G01X14170296Y-1842548D01*
G01X14170296Y-1785398D02*
G01X14187568Y-1768126D01*
G01X14198998Y-1762538D01*
G01X14216016Y-1762538D01*
G01X14227446Y-1768126D01*
G01X14233288Y-1785398D01*
G01X14233288Y-1842548D01*
G01X14298312Y-1722406D02*
G01X14298312Y-1819688D01*
G01X14303900Y-1836706D01*
G01X14315330Y-1842548D01*
G01X14326760Y-1842548D01*
G01X14281040Y-1762538D02*
G01X14321172Y-1762538D01*
G01X15297947Y-1739678D02*
G01X15286517Y-1728248D01*
G01X15269499Y-1722406D01*
G01X15246639Y-1722406D01*
G01X15229367Y-1728248D01*
G01X15217937Y-1739678D01*
G01X15217937Y-1751108D01*
G01X15223779Y-1762538D01*
G01X15229367Y-1768126D01*
G01X15240797Y-1773968D01*
G01X15275087Y-1785398D01*
G01X15286517Y-1790986D01*
G01X15292359Y-1796828D01*
G01X15297947Y-1808258D01*
G01X15297947Y-1825276D01*
G01X15286517Y-1836706D01*
G01X15269499Y-1842548D01*
G01X15246639Y-1842548D01*
G01X15229367Y-1836706D01*
G01X15217937Y-1825276D01*
G01X15345699Y-1722406D02*
G01X15351541Y-1728248D01*
G01X15357129Y-1722406D01*
G01X15351541Y-1716818D01*
G01X15345699Y-1722406D01*
G01X15351541Y-1762538D02*
G01X15351541Y-1842548D01*
G01X15467873Y-1762538D02*
G01X15404881Y-1842548D01*
G01X15404881Y-1762538D02*
G01X15467873Y-1762538D01*
G01X15404881Y-1842548D02*
G01X15467873Y-1842548D01*
G01X15515625Y-1796828D02*
G01X15584205Y-1796828D01*
G01X15584205Y-1785398D01*
G01X15578617Y-1773968D01*
G01X15572775Y-1768126D01*
G01X15561345Y-1762538D01*
G01X15544327Y-1762538D01*
G01X15532897Y-1768126D01*
G01X15521467Y-1779556D01*
G01X15515625Y-1796828D01*
G01X15515625Y-1808258D01*
G01X15521467Y-1825276D01*
G01X15532897Y-1836706D01*
G01X15544327Y-1842548D01*
G01X15561345Y-1842548D01*
G01X15572775Y-1836706D01*
G01X15584205Y-1825276D01*
G01X17825900Y-1722406D02*
G01X17825900Y-1842548D01*
G01X17825900Y-1722406D02*
G01X17877462Y-1722406D01*
G01X17894480Y-1728248D01*
G01X17900322Y-1733836D01*
G01X17905910Y-1745266D01*
G01X17905910Y-1762538D01*
G01X17900322Y-1773968D01*
G01X17894480Y-1779556D01*
G01X17877462Y-1785398D01*
G01X17825900Y-1785398D01*
G01X17953662Y-1722406D02*
G01X17953662Y-1842548D01*
G01X18069994Y-1762538D02*
G01X18069994Y-1842548D01*
G01X18069994Y-1779556D02*
G01X18058564Y-1768126D01*
G01X18047134Y-1762538D01*
G01X18030116Y-1762538D01*
G01X18018686Y-1768126D01*
G01X18007256Y-1779556D01*
G01X18001414Y-1796828D01*
G01X18001414Y-1808258D01*
G01X18007256Y-1825276D01*
G01X18018686Y-1836706D01*
G01X18030116Y-1842548D01*
G01X18047134Y-1842548D01*
G01X18058564Y-1836706D01*
G01X18069994Y-1825276D01*
G01X18135018Y-1722406D02*
G01X18135018Y-1819688D01*
G01X18140606Y-1836706D01*
G01X18152036Y-1842548D01*
G01X18163466Y-1842548D01*
G01X18117746Y-1762538D02*
G01X18157878Y-1762538D01*
G01X18211218Y-1796828D02*
G01X18279798Y-1796828D01*
G01X18279798Y-1785398D01*
G01X18274210Y-1773968D01*
G01X18268368Y-1768126D01*
G01X18256938Y-1762538D01*
G01X18239920Y-1762538D01*
G01X18228490Y-1768126D01*
G01X18217060Y-1779556D01*
G01X18211218Y-1796828D01*
G01X18211218Y-1808258D01*
G01X18217060Y-1825276D01*
G01X18228490Y-1836706D01*
G01X18239920Y-1842548D01*
G01X18256938Y-1842548D01*
G01X18268368Y-1836706D01*
G01X18279798Y-1825276D01*
G01X18396130Y-1722406D02*
G01X18396130Y-1842548D01*
G01X18396130Y-1779556D02*
G01X18384700Y-1768126D01*
G01X18373270Y-1762538D01*
G01X18356252Y-1762538D01*
G01X18344822Y-1768126D01*
G01X18333392Y-1779556D01*
G01X18327550Y-1796828D01*
G01X18327550Y-1808258D01*
G01X18333392Y-1825276D01*
G01X18344822Y-1836706D01*
G01X18356252Y-1842548D01*
G01X18373270Y-1842548D01*
G01X18384700Y-1836706D01*
G01X18396130Y-1825276D01*
G01X19367318Y-1739678D02*
G01X19355888Y-1728248D01*
G01X19338870Y-1722406D01*
G01X19316010Y-1722406D01*
G01X19298738Y-1728248D01*
G01X19287308Y-1739678D01*
G01X19287308Y-1751108D01*
G01X19293150Y-1762538D01*
G01X19298738Y-1768126D01*
G01X19310168Y-1773968D01*
G01X19344458Y-1785398D01*
G01X19355888Y-1790986D01*
G01X19361730Y-1796828D01*
G01X19367318Y-1808258D01*
G01X19367318Y-1825276D01*
G01X19355888Y-1836706D01*
G01X19338870Y-1842548D01*
G01X19316010Y-1842548D01*
G01X19298738Y-1836706D01*
G01X19287308Y-1825276D01*
G01X19415070Y-1722406D02*
G01X19415070Y-1842548D01*
G01X19415070Y-1785398D02*
G01X19432342Y-1768126D01*
G01X19443772Y-1762538D01*
G01X19460790Y-1762538D01*
G01X19472220Y-1768126D01*
G01X19478062Y-1785398D01*
G01X19478062Y-1842548D01*
G01X19594394Y-1762538D02*
G01X19594394Y-1842548D01*
G01X19594394Y-1779556D02*
G01X19582964Y-1768126D01*
G01X19571534Y-1762538D01*
G01X19554516Y-1762538D01*
G01X19543086Y-1768126D01*
G01X19531656Y-1779556D01*
G01X19525814Y-1796828D01*
G01X19525814Y-1808258D01*
G01X19531656Y-1825276D01*
G01X19543086Y-1836706D01*
G01X19554516Y-1842548D01*
G01X19571534Y-1842548D01*
G01X19582964Y-1836706D01*
G01X19594394Y-1825276D01*
G01X19642146Y-1762538D02*
G01X19642146Y-1882426D01*
G01X19642146Y-1779556D02*
G01X19653576Y-1768126D01*
G01X19665006Y-1762538D01*
G01X19682278Y-1762538D01*
G01X19693708Y-1768126D01*
G01X19705138Y-1779556D01*
G01X19710726Y-1796828D01*
G01X19710726Y-1808258D01*
G01X19705138Y-1825276D01*
G01X19693708Y-1836706D01*
G01X19682278Y-1842548D01*
G01X19665006Y-1842548D01*
G01X19653576Y-1836706D01*
G01X19642146Y-1825276D01*
G01X19758478Y-1796828D02*
G01X19827058Y-1796828D01*
G01X19827058Y-1785398D01*
G01X19821470Y-1773968D01*
G01X19815628Y-1768126D01*
G01X19804198Y-1762538D01*
G01X19787180Y-1762538D01*
G01X19775750Y-1768126D01*
G01X19764320Y-1779556D01*
G01X19758478Y-1796828D01*
G01X19758478Y-1808258D01*
G01X19764320Y-1825276D01*
G01X19775750Y-1836706D01*
G01X19787180Y-1842548D01*
G01X19804198Y-1842548D01*
G01X19815628Y-1836706D01*
G01X19827058Y-1825276D01*
G01X20718489Y-1722406D02*
G01X20764209Y-1842548D01*
G01X20809929Y-1722406D02*
G01X20764209Y-1842548D01*
G01X20857681Y-1722406D02*
G01X20863523Y-1728248D01*
G01X20869111Y-1722406D01*
G01X20863523Y-1716818D01*
G01X20857681Y-1722406D01*
G01X20863523Y-1762538D02*
G01X20863523Y-1842548D01*
G01X20985443Y-1762538D02*
G01X20985443Y-1842548D01*
G01X20985443Y-1779556D02*
G01X20974013Y-1768126D01*
G01X20962583Y-1762538D01*
G01X20945565Y-1762538D01*
G01X20934135Y-1768126D01*
G01X20922705Y-1779556D01*
G01X20916863Y-1796828D01*
G01X20916863Y-1808258D01*
G01X20922705Y-1825276D01*
G01X20934135Y-1836706D01*
G01X20945565Y-1842548D01*
G01X20962583Y-1842548D01*
G01X20974013Y-1836706D01*
G01X20985443Y-1825276D01*
G01X21136065Y-1699546D02*
G01X21033195Y-1882426D01*
G01X21183817Y-1722406D02*
G01X21183817Y-1842548D01*
G01X21183817Y-1722406D02*
G01X21235379Y-1722406D01*
G01X21252397Y-1728248D01*
G01X21258239Y-1733836D01*
G01X21263827Y-1745266D01*
G01X21263827Y-1762538D01*
G01X21258239Y-1773968D01*
G01X21252397Y-1779556D01*
G01X21235379Y-1785398D01*
G01X21183817Y-1785398D01*
G01X21380159Y-1762538D02*
G01X21380159Y-1842548D01*
G01X21380159Y-1779556D02*
G01X21368729Y-1768126D01*
G01X21357299Y-1762538D01*
G01X21340281Y-1762538D01*
G01X21328851Y-1768126D01*
G01X21317421Y-1779556D01*
G01X21311579Y-1796828D01*
G01X21311579Y-1808258D01*
G01X21317421Y-1825276D01*
G01X21328851Y-1836706D01*
G01X21340281Y-1842548D01*
G01X21357299Y-1842548D01*
G01X21368729Y-1836706D01*
G01X21380159Y-1825276D01*
G01X21496491Y-1722406D02*
G01X21496491Y-1842548D01*
G01X21496491Y-1779556D02*
G01X21485061Y-1768126D01*
G01X21473631Y-1762538D01*
G01X21456613Y-1762538D01*
G01X21445183Y-1768126D01*
G01X21433753Y-1779556D01*
G01X21427911Y-1796828D01*
G01X21427911Y-1808258D01*
G01X21433753Y-1825276D01*
G01X21445183Y-1836706D01*
G01X21456613Y-1842548D01*
G01X21473631Y-1842548D01*
G01X21485061Y-1836706D01*
G01X21496491Y-1825276D01*
G01X22387668Y-1722406D02*
G01X22387668Y-1842548D01*
G01X22387668Y-1722406D02*
G01X22439230Y-1722406D01*
G01X22456248Y-1728248D01*
G01X22462090Y-1733836D01*
G01X22467678Y-1745266D01*
G01X22467678Y-1762538D01*
G01X22462090Y-1773968D01*
G01X22456248Y-1779556D01*
G01X22439230Y-1785398D01*
G01X22387668Y-1785398D01*
G01X22584010Y-1762538D02*
G01X22584010Y-1842548D01*
G01X22584010Y-1779556D02*
G01X22572580Y-1768126D01*
G01X22561150Y-1762538D01*
G01X22544132Y-1762538D01*
G01X22532702Y-1768126D01*
G01X22521272Y-1779556D01*
G01X22515430Y-1796828D01*
G01X22515430Y-1808258D01*
G01X22521272Y-1825276D01*
G01X22532702Y-1836706D01*
G01X22544132Y-1842548D01*
G01X22561150Y-1842548D01*
G01X22572580Y-1836706D01*
G01X22584010Y-1825276D01*
G01X22700342Y-1722406D02*
G01X22700342Y-1842548D01*
G01X22700342Y-1779556D02*
G01X22688912Y-1768126D01*
G01X22677482Y-1762538D01*
G01X22660464Y-1762538D01*
G01X22649034Y-1768126D01*
G01X22637604Y-1779556D01*
G01X22631762Y-1796828D01*
G01X22631762Y-1808258D01*
G01X22637604Y-1825276D01*
G01X22649034Y-1836706D01*
G01X22660464Y-1842548D01*
G01X22677482Y-1842548D01*
G01X22688912Y-1836706D01*
G01X22700342Y-1825276D01*
G01X22956120Y-1739678D02*
G01X22944690Y-1728248D01*
G01X22927672Y-1722406D01*
G01X22904812Y-1722406D01*
G01X22887540Y-1728248D01*
G01X22876110Y-1739678D01*
G01X22876110Y-1751108D01*
G01X22881952Y-1762538D01*
G01X22887540Y-1768126D01*
G01X22898970Y-1773968D01*
G01X22933260Y-1785398D01*
G01X22944690Y-1790986D01*
G01X22950532Y-1796828D01*
G01X22956120Y-1808258D01*
G01X22956120Y-1825276D01*
G01X22944690Y-1836706D01*
G01X22927672Y-1842548D01*
G01X22904812Y-1842548D01*
G01X22887540Y-1836706D01*
G01X22876110Y-1825276D01*
G01X23003872Y-1722406D02*
G01X23003872Y-1842548D01*
G01X23003872Y-1785398D02*
G01X23021144Y-1768126D01*
G01X23032574Y-1762538D01*
G01X23049592Y-1762538D01*
G01X23061022Y-1768126D01*
G01X23066864Y-1785398D01*
G01X23066864Y-1842548D01*
G01X23183196Y-1762538D02*
G01X23183196Y-1842548D01*
G01X23183196Y-1779556D02*
G01X23171766Y-1768126D01*
G01X23160336Y-1762538D01*
G01X23143318Y-1762538D01*
G01X23131888Y-1768126D01*
G01X23120458Y-1779556D01*
G01X23114616Y-1796828D01*
G01X23114616Y-1808258D01*
G01X23120458Y-1825276D01*
G01X23131888Y-1836706D01*
G01X23143318Y-1842548D01*
G01X23160336Y-1842548D01*
G01X23171766Y-1836706D01*
G01X23183196Y-1825276D01*
G01X23230948Y-1762538D02*
G01X23230948Y-1882426D01*
G01X23230948Y-1779556D02*
G01X23242378Y-1768126D01*
G01X23253808Y-1762538D01*
G01X23271080Y-1762538D01*
G01X23282510Y-1768126D01*
G01X23293940Y-1779556D01*
G01X23299528Y-1796828D01*
G01X23299528Y-1808258D01*
G01X23293940Y-1825276D01*
G01X23282510Y-1836706D01*
G01X23271080Y-1842548D01*
G01X23253808Y-1842548D01*
G01X23242378Y-1836706D01*
G01X23230948Y-1825276D01*
G01X23347280Y-1796828D02*
G01X23415860Y-1796828D01*
G01X23415860Y-1785398D01*
G01X23410272Y-1773968D01*
G01X23404430Y-1768126D01*
G01X23393000Y-1762538D01*
G01X23375982Y-1762538D01*
G01X23364552Y-1768126D01*
G01X23353122Y-1779556D01*
G01X23347280Y-1796828D01*
G01X23347280Y-1808258D01*
G01X23353122Y-1825276D01*
G01X23364552Y-1836706D01*
G01X23375982Y-1842548D01*
G01X23393000Y-1842548D01*
G01X23404430Y-1836706D01*
G01X23415860Y-1825276D01*
G01X24307037Y-1722406D02*
G01X24307037Y-1842548D01*
G01X24307037Y-1842548D02*
G01X24375617Y-1842548D01*
G01X24491949Y-1762538D02*
G01X24491949Y-1842548D01*
G01X24491949Y-1779556D02*
G01X24480519Y-1768126D01*
G01X24469089Y-1762538D01*
G01X24452071Y-1762538D01*
G01X24440641Y-1768126D01*
G01X24429211Y-1779556D01*
G01X24423369Y-1796828D01*
G01X24423369Y-1808258D01*
G01X24429211Y-1825276D01*
G01X24440641Y-1836706D01*
G01X24452071Y-1842548D01*
G01X24469089Y-1842548D01*
G01X24480519Y-1836706D01*
G01X24491949Y-1825276D01*
G01X24545543Y-1762538D02*
G01X24579833Y-1842548D01*
G01X24614123Y-1762538D02*
G01X24579833Y-1842548D01*
G01X24568403Y-1865408D01*
G01X24556973Y-1876838D01*
G01X24545543Y-1882426D01*
G01X24539701Y-1882426D01*
G01X24661875Y-1796828D02*
G01X24730455Y-1796828D01*
G01X24730455Y-1785398D01*
G01X24724867Y-1773968D01*
G01X24719025Y-1768126D01*
G01X24707595Y-1762538D01*
G01X24690577Y-1762538D01*
G01X24679147Y-1768126D01*
G01X24667717Y-1779556D01*
G01X24661875Y-1796828D01*
G01X24661875Y-1808258D01*
G01X24667717Y-1825276D01*
G01X24679147Y-1836706D01*
G01X24690577Y-1842548D01*
G01X24707595Y-1842548D01*
G01X24719025Y-1836706D01*
G01X24730455Y-1825276D01*
G01X24778207Y-1762538D02*
G01X24778207Y-1842548D01*
G01X24778207Y-1796828D02*
G01X24784049Y-1779556D01*
G01X24795479Y-1768126D01*
G01X24806909Y-1762538D01*
G01X24823927Y-1762538D01*
G01X24999695Y-1722406D02*
G01X24999695Y-1842548D01*
G01X24999695Y-1722406D02*
G01X25051257Y-1722406D01*
G01X25068275Y-1728248D01*
G01X25074117Y-1733836D01*
G01X25079705Y-1745266D01*
G01X25079705Y-1762538D01*
G01X25074117Y-1773968D01*
G01X25068275Y-1779556D01*
G01X25051257Y-1785398D01*
G01X24999695Y-1785398D01*
G01X25196037Y-1762538D02*
G01X25196037Y-1842548D01*
G01X25196037Y-1779556D02*
G01X25184607Y-1768126D01*
G01X25173177Y-1762538D01*
G01X25156159Y-1762538D01*
G01X25144729Y-1768126D01*
G01X25133299Y-1779556D01*
G01X25127457Y-1796828D01*
G01X25127457Y-1808258D01*
G01X25133299Y-1825276D01*
G01X25144729Y-1836706D01*
G01X25156159Y-1842548D01*
G01X25173177Y-1842548D01*
G01X25184607Y-1836706D01*
G01X25196037Y-1825276D01*
G01X25243789Y-1722406D02*
G01X25249631Y-1728248D01*
G01X25255219Y-1722406D01*
G01X25249631Y-1716818D01*
G01X25243789Y-1722406D01*
G01X25249631Y-1762538D02*
G01X25249631Y-1842548D01*
G01X25302971Y-1762538D02*
G01X25302971Y-1842548D01*
G01X25302971Y-1796828D02*
G01X25308813Y-1779556D01*
G01X25320243Y-1768126D01*
G01X25331673Y-1762538D01*
G01X25348691Y-1762538D01*
G01X13860924Y-2302977D02*
G01X13803774Y-2382987D01*
G01X13889626Y-2382987D01*
G01X13860924Y-2302977D02*
G01X13860924Y-2423119D01*
G01X15217937Y-2325837D02*
G01X15229367Y-2320249D01*
G01X15246639Y-2302977D01*
G01X15246639Y-2423119D01*
G01X15300233Y-2331679D02*
G01X15300233Y-2325837D01*
G01X15305821Y-2314407D01*
G01X15311663Y-2308819D01*
G01X15323093Y-2302977D01*
G01X15345953Y-2302977D01*
G01X15357383Y-2308819D01*
G01X15362971Y-2314407D01*
G01X15368813Y-2325837D01*
G01X15368813Y-2337267D01*
G01X15362971Y-2348697D01*
G01X15351541Y-2365969D01*
G01X15294391Y-2423119D01*
G01X15374401Y-2423119D01*
G01X15427995Y-2394417D02*
G01X15422153Y-2400259D01*
G01X15427995Y-2405847D01*
G01X15433583Y-2400259D01*
G01X15427995Y-2394417D01*
G01X15515625Y-2302977D02*
G01X15498607Y-2308819D01*
G01X15487177Y-2325837D01*
G01X15481335Y-2354539D01*
G01X15481335Y-2371557D01*
G01X15487177Y-2400259D01*
G01X15498607Y-2417277D01*
G01X15515625Y-2423119D01*
G01X15527055Y-2423119D01*
G01X15544327Y-2417277D01*
G01X15555757Y-2400259D01*
G01X15561345Y-2371557D01*
G01X15561345Y-2354539D01*
G01X15555757Y-2325837D01*
G01X15544327Y-2308819D01*
G01X15527055Y-2302977D01*
G01X15515625Y-2302977D01*
G01X15609097Y-2343109D02*
G01X15609097Y-2423119D01*
G01X15609097Y-2365969D02*
G01X15626369Y-2348697D01*
G01X15637799Y-2343109D01*
G01X15654817Y-2343109D01*
G01X15666247Y-2348697D01*
G01X15672089Y-2365969D01*
G01X15672089Y-2423119D01*
G01X15672089Y-2365969D02*
G01X15689107Y-2348697D01*
G01X15700537Y-2343109D01*
G01X15717809Y-2343109D01*
G01X15729239Y-2348697D01*
G01X15734827Y-2365969D01*
G01X15734827Y-2423119D01*
G01X15782579Y-2302977D02*
G01X15788421Y-2308819D01*
G01X15794009Y-2302977D01*
G01X15788421Y-2297389D01*
G01X15782579Y-2302977D01*
G01X15788421Y-2343109D02*
G01X15788421Y-2423119D01*
G01X15841761Y-2302977D02*
G01X15841761Y-2423119D01*
G01X15929645Y-2280117D02*
G01X15918215Y-2291547D01*
G01X15906785Y-2308819D01*
G01X15895355Y-2331679D01*
G01X15889513Y-2360127D01*
G01X15889513Y-2382987D01*
G01X15895355Y-2411689D01*
G01X15906785Y-2434549D01*
G01X15918215Y-2451567D01*
G01X15929645Y-2462997D01*
G01X16011687Y-2302977D02*
G01X15994669Y-2308819D01*
G01X15983239Y-2325837D01*
G01X15977397Y-2354539D01*
G01X15977397Y-2371557D01*
G01X15983239Y-2400259D01*
G01X15994669Y-2417277D01*
G01X16011687Y-2423119D01*
G01X16023117Y-2423119D01*
G01X16040389Y-2417277D01*
G01X16051819Y-2400259D01*
G01X16057407Y-2371557D01*
G01X16057407Y-2354539D01*
G01X16051819Y-2325837D01*
G01X16040389Y-2308819D01*
G01X16023117Y-2302977D01*
G01X16011687Y-2302977D01*
G01X16111001Y-2394417D02*
G01X16105159Y-2400259D01*
G01X16111001Y-2405847D01*
G01X16116589Y-2400259D01*
G01X16111001Y-2394417D01*
G01X16175771Y-2302977D02*
G01X16238763Y-2302977D01*
G01X16204473Y-2348697D01*
G01X16221491Y-2348697D01*
G01X16232921Y-2354539D01*
G01X16238763Y-2360127D01*
G01X16244351Y-2377399D01*
G01X16244351Y-2388829D01*
G01X16238763Y-2405847D01*
G01X16227333Y-2417277D01*
G01X16210061Y-2423119D01*
G01X16193043Y-2423119D01*
G01X16175771Y-2417277D01*
G01X16170183Y-2411689D01*
G01X16164341Y-2400259D01*
G01X16326393Y-2302977D02*
G01X16309375Y-2308819D01*
G01X16297945Y-2325837D01*
G01X16292103Y-2354539D01*
G01X16292103Y-2371557D01*
G01X16297945Y-2400259D01*
G01X16309375Y-2417277D01*
G01X16326393Y-2423119D01*
G01X16337823Y-2423119D01*
G01X16355095Y-2417277D01*
G01X16366525Y-2400259D01*
G01X16372113Y-2371557D01*
G01X16372113Y-2354539D01*
G01X16366525Y-2325837D01*
G01X16355095Y-2308819D01*
G01X16337823Y-2302977D01*
G01X16326393Y-2302977D01*
G01X16488445Y-2302977D02*
G01X16431295Y-2302977D01*
G01X16425707Y-2354539D01*
G01X16431295Y-2348697D01*
G01X16448567Y-2343109D01*
G01X16465585Y-2343109D01*
G01X16482857Y-2348697D01*
G01X16494287Y-2360127D01*
G01X16499875Y-2377399D01*
G01X16499875Y-2388829D01*
G01X16494287Y-2405847D01*
G01X16482857Y-2417277D01*
G01X16465585Y-2423119D01*
G01X16448567Y-2423119D01*
G01X16431295Y-2417277D01*
G01X16425707Y-2411689D01*
G01X16419865Y-2400259D01*
G01X16547627Y-2343109D02*
G01X16547627Y-2423119D01*
G01X16547627Y-2365969D02*
G01X16564899Y-2348697D01*
G01X16576329Y-2343109D01*
G01X16593347Y-2343109D01*
G01X16604777Y-2348697D01*
G01X16610619Y-2365969D01*
G01X16610619Y-2423119D01*
G01X16610619Y-2365969D02*
G01X16627637Y-2348697D01*
G01X16639067Y-2343109D01*
G01X16656339Y-2343109D01*
G01X16667769Y-2348697D01*
G01X16673357Y-2365969D01*
G01X16673357Y-2423119D01*
G01X16721109Y-2343109D02*
G01X16721109Y-2423119D01*
G01X16721109Y-2365969D02*
G01X16738381Y-2348697D01*
G01X16749811Y-2343109D01*
G01X16766829Y-2343109D01*
G01X16778259Y-2348697D01*
G01X16784101Y-2365969D01*
G01X16784101Y-2423119D01*
G01X16784101Y-2365969D02*
G01X16801119Y-2348697D01*
G01X16812549Y-2343109D01*
G01X16829821Y-2343109D01*
G01X16841251Y-2348697D01*
G01X16846839Y-2365969D01*
G01X16846839Y-2423119D01*
G01X16894591Y-2280117D02*
G01X16906021Y-2291547D01*
G01X16917451Y-2308819D01*
G01X16928881Y-2331679D01*
G01X16934723Y-2360127D01*
G01X16934723Y-2382987D01*
G01X16928881Y-2411689D01*
G01X16917451Y-2434549D01*
G01X16906021Y-2451567D01*
G01X16894591Y-2462997D01*
G01X17825900Y-2302977D02*
G01X17825900Y-2423119D01*
G01X17825900Y-2302977D02*
G01X17877462Y-2302977D01*
G01X17894480Y-2308819D01*
G01X17900322Y-2314407D01*
G01X17905910Y-2325837D01*
G01X17905910Y-2343109D01*
G01X17900322Y-2354539D01*
G01X17894480Y-2360127D01*
G01X17877462Y-2365969D01*
G01X17825900Y-2365969D01*
G01X17993794Y-2302977D02*
G01X17993794Y-2423119D01*
G01X17953662Y-2302977D02*
G01X18033672Y-2302977D01*
G01X18081424Y-2302977D02*
G01X18081424Y-2423119D01*
G01X18161434Y-2302977D02*
G01X18161434Y-2423119D01*
G01X18081424Y-2360127D02*
G01X18161434Y-2360127D01*
G01X19287308Y-2302977D02*
G01X19287308Y-2423119D01*
G01X19287308Y-2302977D02*
G01X19338870Y-2302977D01*
G01X19355888Y-2308819D01*
G01X19361730Y-2314407D01*
G01X19367318Y-2325837D01*
G01X19367318Y-2337267D01*
G01X19361730Y-2348697D01*
G01X19355888Y-2354539D01*
G01X19338870Y-2360127D01*
G01X19287308Y-2360127D01*
G01X19327440Y-2360127D02*
G01X19367318Y-2423119D01*
G01X19443772Y-2343109D02*
G01X19432342Y-2348697D01*
G01X19420912Y-2360127D01*
G01X19415070Y-2377399D01*
G01X19415070Y-2388829D01*
G01X19420912Y-2405847D01*
G01X19432342Y-2417277D01*
G01X19443772Y-2423119D01*
G01X19460790Y-2423119D01*
G01X19472220Y-2417277D01*
G01X19483650Y-2405847D01*
G01X19489492Y-2388829D01*
G01X19489492Y-2377399D01*
G01X19483650Y-2360127D01*
G01X19472220Y-2348697D01*
G01X19460790Y-2343109D01*
G01X19443772Y-2343109D01*
G01X19537244Y-2343109D02*
G01X19537244Y-2400259D01*
G01X19543086Y-2417277D01*
G01X19554516Y-2423119D01*
G01X19571534Y-2423119D01*
G01X19582964Y-2417277D01*
G01X19600236Y-2400259D01*
G01X19600236Y-2343109D02*
G01X19600236Y-2423119D01*
G01X19647988Y-2343109D02*
G01X19647988Y-2423119D01*
G01X19647988Y-2365969D02*
G01X19665260Y-2348697D01*
G01X19676690Y-2343109D01*
G01X19693708Y-2343109D01*
G01X19705138Y-2348697D01*
G01X19710980Y-2365969D01*
G01X19710980Y-2423119D01*
G01X19827312Y-2302977D02*
G01X19827312Y-2423119D01*
G01X19827312Y-2360127D02*
G01X19815882Y-2348697D01*
G01X19804452Y-2343109D01*
G01X19787434Y-2343109D01*
G01X19776004Y-2348697D01*
G01X19764574Y-2360127D01*
G01X19758732Y-2377399D01*
G01X19758732Y-2388829D01*
G01X19764574Y-2405847D01*
G01X19776004Y-2417277D01*
G01X19787434Y-2423119D01*
G01X19804452Y-2423119D01*
G01X19815882Y-2417277D01*
G01X19827312Y-2405847D01*
G01X20718489Y-2302977D02*
G01X20764209Y-2423119D01*
G01X20809929Y-2302977D02*
G01X20764209Y-2423119D01*
G01X20857681Y-2302977D02*
G01X20863523Y-2308819D01*
G01X20869111Y-2302977D01*
G01X20863523Y-2297389D01*
G01X20857681Y-2302977D01*
G01X20863523Y-2343109D02*
G01X20863523Y-2423119D01*
G01X20985443Y-2343109D02*
G01X20985443Y-2423119D01*
G01X20985443Y-2360127D02*
G01X20974013Y-2348697D01*
G01X20962583Y-2343109D01*
G01X20945565Y-2343109D01*
G01X20934135Y-2348697D01*
G01X20922705Y-2360127D01*
G01X20916863Y-2377399D01*
G01X20916863Y-2388829D01*
G01X20922705Y-2405847D01*
G01X20934135Y-2417277D01*
G01X20945565Y-2423119D01*
G01X20962583Y-2423119D01*
G01X20974013Y-2417277D01*
G01X20985443Y-2405847D01*
G01X24347169Y-2302977D02*
G01X24347169Y-2423119D01*
G01X24307037Y-2302977D02*
G01X24387047Y-2302977D01*
G01X24463501Y-2343109D02*
G01X24452071Y-2348697D01*
G01X24440641Y-2360127D01*
G01X24434799Y-2377399D01*
G01X24434799Y-2388829D01*
G01X24440641Y-2405847D01*
G01X24452071Y-2417277D01*
G01X24463501Y-2423119D01*
G01X24480519Y-2423119D01*
G01X24491949Y-2417277D01*
G01X24503379Y-2405847D01*
G01X24509221Y-2388829D01*
G01X24509221Y-2377399D01*
G01X24503379Y-2360127D01*
G01X24491949Y-2348697D01*
G01X24480519Y-2343109D01*
G01X24463501Y-2343109D01*
G01X24556973Y-2343109D02*
G01X24556973Y-2462997D01*
G01X24556973Y-2360127D02*
G01X24568403Y-2348697D01*
G01X24579833Y-2343109D01*
G01X24597105Y-2343109D01*
G01X24608535Y-2348697D01*
G01X24619965Y-2360127D01*
G01X24625553Y-2377399D01*
G01X24625553Y-2388829D01*
G01X24619965Y-2405847D01*
G01X24608535Y-2417277D01*
G01X24597105Y-2423119D01*
G01X24579833Y-2423119D01*
G01X24568403Y-2417277D01*
G01X24556973Y-2405847D01*
G01X24801321Y-2302977D02*
G01X24801321Y-2423119D01*
G01X24801321Y-2423119D02*
G01X24869901Y-2423119D01*
G01X24986233Y-2343109D02*
G01X24986233Y-2423119D01*
G01X24986233Y-2360127D02*
G01X24974803Y-2348697D01*
G01X24963373Y-2343109D01*
G01X24946355Y-2343109D01*
G01X24934925Y-2348697D01*
G01X24923495Y-2360127D01*
G01X24917653Y-2377399D01*
G01X24917653Y-2388829D01*
G01X24923495Y-2405847D01*
G01X24934925Y-2417277D01*
G01X24946355Y-2423119D01*
G01X24963373Y-2423119D01*
G01X24974803Y-2417277D01*
G01X24986233Y-2405847D01*
G01X25039827Y-2343109D02*
G01X25074117Y-2423119D01*
G01X25108407Y-2343109D02*
G01X25074117Y-2423119D01*
G01X25062687Y-2445979D01*
G01X25051257Y-2457409D01*
G01X25039827Y-2462997D01*
G01X25033985Y-2462997D01*
G01X25156159Y-2377399D02*
G01X25224739Y-2377399D01*
G01X25224739Y-2365969D01*
G01X25219151Y-2354539D01*
G01X25213309Y-2348697D01*
G01X25201879Y-2343109D01*
G01X25184861Y-2343109D01*
G01X25173431Y-2348697D01*
G01X25162001Y-2360127D01*
G01X25156159Y-2377399D01*
G01X25156159Y-2388829D01*
G01X25162001Y-2405847D01*
G01X25173431Y-2417277D01*
G01X25184861Y-2423119D01*
G01X25201879Y-2423119D01*
G01X25213309Y-2417277D01*
G01X25224739Y-2405847D01*
G01X25272491Y-2343109D02*
G01X25272491Y-2423119D01*
G01X25272491Y-2377399D02*
G01X25278333Y-2360127D01*
G01X25289763Y-2348697D01*
G01X25301193Y-2343109D01*
G01X25318211Y-2343109D01*
G01X25365963Y-2371557D02*
G01X25468833Y-2371557D01*
G01X25516585Y-2302977D02*
G01X25516585Y-2423119D01*
G01X25516585Y-2302977D02*
G01X25568147Y-2302977D01*
G01X25585165Y-2308819D01*
G01X25591007Y-2314407D01*
G01X25596595Y-2325837D01*
G01X25596595Y-2337267D01*
G01X25591007Y-2348697D01*
G01X25585165Y-2354539D01*
G01X25568147Y-2360127D01*
G01X25516585Y-2360127D02*
G01X25568147Y-2360127D01*
G01X25585165Y-2365969D01*
G01X25591007Y-2371557D01*
G01X25596595Y-2382987D01*
G01X25596595Y-2400259D01*
G01X25591007Y-2411689D01*
G01X25585165Y-2417277D01*
G01X25568147Y-2423119D01*
G01X25516585Y-2423119D01*
G01X25673049Y-2343109D02*
G01X25661619Y-2348697D01*
G01X25650189Y-2360127D01*
G01X25644347Y-2377399D01*
G01X25644347Y-2388829D01*
G01X25650189Y-2405847D01*
G01X25661619Y-2417277D01*
G01X25673049Y-2423119D01*
G01X25690067Y-2423119D01*
G01X25701497Y-2417277D01*
G01X25712927Y-2405847D01*
G01X25718769Y-2388829D01*
G01X25718769Y-2377399D01*
G01X25712927Y-2360127D01*
G01X25701497Y-2348697D01*
G01X25690067Y-2343109D01*
G01X25673049Y-2343109D01*
G01X25783793Y-2302977D02*
G01X25783793Y-2400259D01*
G01X25789381Y-2417277D01*
G01X25800811Y-2423119D01*
G01X25812241Y-2423119D01*
G01X25766521Y-2343109D02*
G01X25806653Y-2343109D01*
G01X25877265Y-2302977D02*
G01X25877265Y-2400259D01*
G01X25882853Y-2417277D01*
G01X25894283Y-2423119D01*
G01X25905713Y-2423119D01*
G01X25859993Y-2343109D02*
G01X25900125Y-2343109D01*
G01X25982167Y-2343109D02*
G01X25970737Y-2348697D01*
G01X25959307Y-2360127D01*
G01X25953465Y-2377399D01*
G01X25953465Y-2388829D01*
G01X25959307Y-2405847D01*
G01X25970737Y-2417277D01*
G01X25982167Y-2423119D01*
G01X25999185Y-2423119D01*
G01X26010615Y-2417277D01*
G01X26022045Y-2405847D01*
G01X26027887Y-2388829D01*
G01X26027887Y-2377399D01*
G01X26022045Y-2360127D01*
G01X26010615Y-2348697D01*
G01X25999185Y-2343109D01*
G01X25982167Y-2343109D01*
G01X26075639Y-2343109D02*
G01X26075639Y-2423119D01*
G01X26075639Y-2365969D02*
G01X26092911Y-2348697D01*
G01X26104341Y-2343109D01*
G01X26121359Y-2343109D01*
G01X26132789Y-2348697D01*
G01X26138631Y-2365969D01*
G01X26138631Y-2423119D01*
G01X26138631Y-2365969D02*
G01X26155649Y-2348697D01*
G01X26167079Y-2343109D01*
G01X26184351Y-2343109D01*
G01X26195781Y-2348697D01*
G01X26201369Y-2365969D01*
G01X26201369Y-2423119D01*
G01X26377137Y-2302977D02*
G01X26377137Y-2423119D01*
G01X26377137Y-2423119D02*
G01X26445717Y-2423119D01*
G01X26562049Y-2343109D02*
G01X26562049Y-2423119D01*
G01X26562049Y-2360127D02*
G01X26550619Y-2348697D01*
G01X26539189Y-2343109D01*
G01X26522171Y-2343109D01*
G01X26510741Y-2348697D01*
G01X26499311Y-2360127D01*
G01X26493469Y-2377399D01*
G01X26493469Y-2388829D01*
G01X26499311Y-2405847D01*
G01X26510741Y-2417277D01*
G01X26522171Y-2423119D01*
G01X26539189Y-2423119D01*
G01X26550619Y-2417277D01*
G01X26562049Y-2405847D01*
G01X26615643Y-2343109D02*
G01X26649933Y-2423119D01*
G01X26684223Y-2343109D02*
G01X26649933Y-2423119D01*
G01X26638503Y-2445979D01*
G01X26627073Y-2457409D01*
G01X26615643Y-2462997D01*
G01X26609801Y-2462997D01*
G01X26731975Y-2377399D02*
G01X26800555Y-2377399D01*
G01X26800555Y-2365969D01*
G01X26794967Y-2354539D01*
G01X26789125Y-2348697D01*
G01X26777695Y-2343109D01*
G01X26760677Y-2343109D01*
G01X26749247Y-2348697D01*
G01X26737817Y-2360127D01*
G01X26731975Y-2377399D01*
G01X26731975Y-2388829D01*
G01X26737817Y-2405847D01*
G01X26749247Y-2417277D01*
G01X26760677Y-2423119D01*
G01X26777695Y-2423119D01*
G01X26789125Y-2417277D01*
G01X26800555Y-2405847D01*
G01X26848307Y-2343109D02*
G01X26848307Y-2423119D01*
G01X26848307Y-2377399D02*
G01X26854149Y-2360127D01*
G01X26865579Y-2348697D01*
G01X26877009Y-2343109D01*
G01X26894027Y-2343109D01*

G04 Image Start*
G36*
G01X12342186Y-2226414D02*
G01X12621586Y-2226414D01*
G01X12621586Y-2505814D01*
G01X12342186Y-2505814D01*
G01X12342186Y-2251814D01*
G01X12367586Y-2251814D01*
G01X12367586Y-2480414D01*
G01X12596186Y-2480414D01*
G01X12596186Y-2251814D01*
G01X12596186Y-2251814D01*
G01X12367586Y-2251814D01*
G01X12342186Y-2251814D01*
G01X12342186Y-2226414D01*
G37*

G04 PolygonModel Start*
G54D12*
G01X12051900Y-2661843D02*
G01X27484758Y-2661843D01*
G01X12051900Y-2081271D02*
G01X27484758Y-2081271D01*
G01X12051900Y-1500700D02*
G01X27484758Y-1500700D01*
G01X12051900Y-1500700D02*
G01X12051900Y-2636443D01*
G01X13503328Y-1500700D02*
G01X13503328Y-2636443D01*
G01X14917492Y-1500700D02*
G01X14917492Y-2636443D01*
G01X17525455Y-1500700D02*
G01X17525455Y-2636443D01*
G01X18986862Y-1500700D02*
G01X18986862Y-2636443D01*
G01X20418043Y-1500700D02*
G01X20418043Y-2636443D01*
G01X22087222Y-1500700D02*
G01X22087222Y-2636443D01*
G01X24006591Y-1500700D02*
G01X24006591Y-2636443D01*
G01X27484758Y-1500700D02*
G01X27484758Y-2636443D01*

M02*

