G04 Layer: TopLayer*
G04 EasyEDA Pro v3.2.149.88089769, 2026-07-19 00:13:07*
G04 Gerber Generator version 0.3*
G04 Scale: 100 percent, Rotated: No, Reflected: No*
G04 Dimensions in millimeters*
G04 Leading zeros omitted, absolute positions, 4 integers and 5 decimals*
G04 Generated by one-click*
G04 Object Configs: Pad,Via,Track,Text,Image,Dimension,BoardOutline,BoardCutout,CopperFilled,SolidRegion,FPCStiffener,Line,PlaneZone,ComponentProperty,ComponentSilkscreen,TearDrop*
G04 Layer Configs: 1,2,3,4,5,6,7,8,9,10,11,13,14,56*
G04 Copper Areas: 0*
%FSLAX45Y45*%
%MOMM*%
%ADD10R,0.8001X0.8001*%
%ADD11R,0.80648X0.86401*%
%ADD12R,0.3X0.3*%
%ADD13R,0.5X0.3*%
%ADD14R,0.3X0.5*%
%ADD15C,0.6100*%
%ADD16C,0.61*%
%ADD17C,0.254*%
G75*


G04 Pad Start*
G54D10*
G01X3852179Y-4921000D03*
G01X4012199Y-4920492D03*
G54D11*
G01X2629764Y-5702300D03*
G01X2780436Y-5702300D03*
G54D12*
G01X2692403Y-6057900D03*
G54D13*
G01X2752397Y-6057900D03*
G54D14*
G01X2742390Y-6122899D03*
G01X2692403Y-6122899D03*
G01X2642390Y-6122899D03*
G54D13*
G01X2632408Y-6057900D03*
G54D14*
G01X2642390Y-5992901D03*
G01X2692403Y-5992901D03*
G01X2742390Y-5992901D03*
G04 Pad End*

G04 Via Start*
G54D16*
G01X1935500Y-6635100D03*
G01X2832100Y-5840437D03*
G01X3048000Y-5880100D03*
G01X2400300Y-6261100D03*
G04 Via End*

G04 Track Start*
G54D17*
G01X2692403Y-6122899D02*
G01X2742390Y-6122899D01*
G01X1943100Y-6642100D02*
G01X8443100Y-6642100D01*
G01X8443100Y-1642100D01*
G01X2008500Y-1642100D01*
G01X2008500Y-6576700D01*
G01X8377700Y-6576700D01*
G01X8377700Y-1707500D01*
G01X2073900Y-1707500D01*
G01X2073900Y-6511300D01*
G01X8312300Y-6511300D01*
G01X8312300Y-1772900D01*
G01X2139300Y-1772900D01*
G01X2139300Y-6445900D01*
G01X8246900Y-6445900D01*
G01X8246900Y-1838300D01*
G01X2204700Y-1838300D01*
G01X2204700Y-6380500D01*
G01X2400300Y-6261100D02*
G01X2400300Y-6337300D01*
G01X2362200Y-6375400D01*
G01X2209800Y-6375400D01*
G01X2204700Y-6380500D01*
G01X2629764Y-5702300D02*
G01X2692403Y-5764939D01*
G01X2780436Y-5702300D02*
G01X3070879Y-5702300D01*
G01X3852179Y-4921000D01*
G01X3162300Y-5770391D02*
G01X4012199Y-4920492D01*
G01X2742390Y-6122899D02*
G01X3097301Y-6122899D01*
G01X3162300Y-6057900D01*
G01X3162300Y-5770391D01*
G01X2752397Y-6057900D02*
G01X2930197Y-5880100D01*
G01X3048000Y-5880100D01*
G01X2832100Y-5840437D02*
G01X2832100Y-5903191D01*
G01X2742390Y-5992901D01*
G01X2692403Y-5764939D02*
G01X2692403Y-5992901D01*
G04 Track End*

M02*

